<?xml version="1.0" standalone="no"?>
<!DOCTYPE svg PUBLIC "-//W3C//DTD SVG 20010904//EN"
 "http://www.w3.org/TR/2001/REC-SVG-20010904/DTD/svg10.dtd">
<svg version="1.0" xmlns="http://www.w3.org/2000/svg"
 width="360.000000pt" height="360.000000pt" viewBox="0 0 360.000000 360.000000"
 preserveAspectRatio="xMidYMid meet">
<metadata>
Created by potrace 1.16, written by Peter Selinger 2001-2019
</metadata>
<g transform="translate(0.000000,360.000000) scale(0.100000,-0.100000)"
fill="#000000" stroke="none">
<path d="M865 3381 c-47 -22 -89 -64 -104 -104 -8 -20 -11 -469 -11 -1448 0
-1586 -7 -1444 73 -1526 22 -23 45 -39 50 -36 6 3 7 1 3 -6 -5 -7 8 -19 38
-31 44 -20 64 -20 923 -18 988 3 916 -3 971 80 l27 42 3 1430 2 1431 -47 79
c-80 133 21 121 -1008 123 -840 3 -882 2 -920 -16z m1848 -31 c21 -14 46 -43
57 -66 20 -40 20 -64 20 -1452 0 -972 -3 -1419 -11 -1439 -13 -34 -55 -80 -91
-99 -41 -21 -1786 -21 -1827 1 -39 20 -78 69 -91 113 -14 51 -14 2793 0 2844
19 67 72 116 139 127 19 3 424 4 901 1 l866 -5 37 -25z m104 -2242 c-1 -370
-2 -68 -2 672 0 740 1 1042 2 673 2 -370 2 -976 0 -1345z m-172 -857 c-3 -5 9
-11 27 -13 33 -3 -1358 -3 -1589 0 -74 1 -123 6 -123 12 0 7 289 10 846 10
522 0 843 -4 839 -9z"/>
<path d="M898 3294 c-58 -31 -58 -31 -58 -529 l0 -455 34 -38 34 -37 854 -3
c625 -2 860 1 881 9 15 6 38 26 50 43 22 31 22 34 25 473 3 490 3 495 -60 533
-32 20 -48 20 -883 20 -732 -1 -854 -3 -877 -16z m1722 -72 c19 -19 30 -44 35
-73 3 -24 5 -210 3 -414 -3 -405 -4 -406 -64 -433 -18 -9 -242 -12 -825 -12
l-801 0 -34 34 -34 34 0 411 0 410 31 36 31 35 815 0 815 0 28 -28z"/>
<path d="M852 2108 c-18 -18 -17 -282 2 -297 9 -8 56 -11 142 -9 123 3 129 4
140 26 6 13 17 29 23 35 14 14 15 211 1 238 -10 17 -23 19 -153 19 -98 0 -147
-4 -155 -12z"/>
<path d="M1248 2106 c-10 -7 -18 -17 -18 -22 0 -4 5 -3 12 4 17 17 248 16 272
-1 16 -12 19 -29 19 -115 0 -68 -4 -106 -13 -116 -10 -13 -37 -16 -141 -16
-74 0 -130 4 -134 10 -3 6 -10 10 -15 10 -11 0 0 -43 14 -52 14 -10 248 -10
262 0 30 20 44 77 44 180 0 88 -3 107 -17 118 -25 19 -261 19 -285 0z"/>
<path d="M1632 2108 c-16 -16 -15 -33 1 -20 10 9 134 15 234 13 43 -2 53 -25
53 -130 0 -132 1 -131 -161 -131 -84 0 -129 4 -137 12 -9 9 -12 8 -12 -4 0 -9
7 -24 16 -33 13 -13 37 -15 142 -13 l125 3 23 40 c20 34 23 54 24 141 0 133
-1 134 -173 134 -82 0 -127 -4 -135 -12z"/>
<path d="M2012 2108 c-8 -8 -12 -57 -12 -155 0 -169 -15 -155 164 -151 l119 3
19 34 c15 27 19 55 19 143 1 71 -3 114 -11 123 -16 20 -279 22 -298 3z m259
-28 c19 -10 20 -19 17 -91 -2 -43 1 -79 6 -79 5 0 2 -8 -7 -18 -21 -23 -22
-39 -2 -22 13 11 14 10 9 -4 -5 -14 -25 -16 -140 -16 -132 0 -134 0 -134 23 0
17 2 19 10 7 5 -8 12 -12 15 -8 3 3 -1 13 -10 22 -9 9 -12 16 -5 16 6 0 9 4 5
9 -3 5 -1 12 5 16 5 3 10 -1 10 -9 0 -9 8 -16 18 -16 13 0 14 2 3 9 -9 6 -5 9
13 9 22 0 26 -5 26 -30 0 -27 -3 -30 -25 -24 -14 4 -25 2 -25 -3 0 -6 38 -9
96 -6 79 3 98 7 108 22 18 28 19 78 2 93 -9 7 -16 19 -16 26 0 8 -6 11 -16 7
-12 -4 -15 -1 -13 12 7 32 29 28 44 -7 l14 -33 1 31 c0 30 -18 56 -36 53 -5
-1 -13 0 -19 1 -5 1 -31 3 -57 4 -42 1 -48 -2 -48 -19 -1 -29 -23 -55 -39 -45
-11 6 -9 10 8 19 12 7 21 21 20 34 0 12 -3 16 -6 9 -2 -6 -9 -10 -14 -6 -5 3
-9 -3 -10 -13 -1 -13 -3 -12 -7 5 l-7 23 -22 -21 -23 -21 0 25 c0 24 0 24 115
25 68 1 123 -3 136 -9z"/>
<path d="M2402 2108 c-12 -15 -20 -277 -9 -295 6 -9 46 -13 142 -13 l135 0 20
42 c16 34 20 62 20 148 0 69 -4 110 -12 118 -17 17 -282 17 -296 0z m266 -35
c12 -22 18 -170 8 -200 -7 -21 -12 -21 -138 -20 -100 2 -132 5 -136 15 -3 11
0 12 16 3 25 -13 32 -14 32 -2 0 5 -8 12 -17 14 -11 3 -7 5 10 6 16 0 26 5 22
11 -3 6 4 10 17 10 18 0 20 -2 8 -10 -10 -7 12 -10 73 -10 55 0 87 4 87 11 0
5 -4 8 -9 5 -5 -4 -4 5 2 18 8 17 14 21 19 13 5 -7 7 12 6 41 -1 30 -7 60 -15
67 -7 8 -13 20 -14 27 0 10 -2 10 -6 1 -6 -15 -33 -17 -33 -3 0 6 -5 10 -11
10 -6 0 -9 -7 -6 -15 4 -8 2 -17 -4 -20 -5 -4 -9 -3 -8 2 5 27 -4 33 -43 33
-24 0 -61 -7 -83 -14 -43 -15 -50 -14 -42 7 4 11 34 14 130 16 112 2 127 0
135 -16z"/>
<path d="M862 1754 c-12 -8 -22 -20 -22 -27 0 -8 3 -8 12 1 8 8 56 12 149 12
116 0 138 -2 143 -16 10 -26 7 -194 -4 -215 -10 -17 -22 -19 -143 -19 -90 0
-137 4 -145 12 -9 9 -12 7 -12 -9 0 -38 21 -44 156 -41 123 3 129 4 140 26 6
13 17 29 23 35 7 7 11 52 11 114 0 142 -1 143 -163 143 -95 0 -128 -4 -145
-16z"/>
<path d="M2406 1757 c-15 -11 -18 -31 -18 -148 -1 -74 2 -141 6 -147 5 -8 48
-12 141 -12 l133 0 21 36 c18 30 21 51 21 149 0 103 -2 115 -19 125 -29 15
-263 13 -285 -3z m262 -31 c14 -8 15 -205 1 -222 -15 -18 -239 -20 -257 -2
-21 21 -13 31 13 14 21 -14 24 -14 19 -1 -4 8 -1 15 5 15 6 0 11 -4 11 -8 0
-5 23 -9 50 -9 28 0 50 3 50 7 0 8 81 7 96 -2 6 -4 10 4 9 19 0 34 -22 41 -35
11 -8 -21 -9 -20 -7 9 1 22 -7 41 -23 59 -14 15 -19 24 -12 20 6 -4 12 -3 12
3 0 6 7 8 15 5 8 -4 15 -10 15 -15 0 -4 -8 -5 -17 -2 -16 6 -16 5 -4 -11 13
-16 15 -16 24 -1 6 12 3 23 -10 37 -10 12 -13 18 -6 15 6 -4 15 -2 19 4 4 7 3
9 -3 6 -6 -4 -14 4 -17 17 -6 24 -9 25 -79 22 -39 -2 -75 -4 -79 -5 -4 0 -9
-13 -11 -28 -3 -22 -4 -21 -3 5 1 18 -3 32 -9 32 -7 0 -11 -16 -11 -37 1 -34
4 -38 28 -38 14 0 30 -4 35 -9 5 -6 2 -6 -6 -1 -11 6 -13 4 -7 -11 6 -15 5
-16 -5 -7 -13 13 -54 -1 -45 -15 2 -4 -2 -13 -10 -20 -19 -17 -18 -2 2 26 10
15 13 27 6 35 -5 7 -12 29 -15 49 -4 29 -2 37 10 40 26 5 242 0 251 -6z"/>
<path d="M1733 1680 c-24 -10 -31 -48 -13 -66 8 -8 6 -15 -5 -24 -34 -28 -3
-70 50 -70 26 0 39 6 51 25 16 24 15 27 0 44 -15 16 -15 22 -4 41 11 19 10 24
-11 41 -26 21 -35 22 -68 9z"/>
<path d="M2122 1674 c-47 -32 -9 -117 44 -97 17 6 17 5 5 -10 -7 -9 -24 -17
-37 -17 -15 0 -24 -6 -24 -15 0 -25 57 -19 85 10 32 31 34 96 5 125 -24 24
-48 25 -78 4z"/>
<path d="M996 1412 c-123 -2 -156 -10 -156 -35 0 -5 8 -3 18 6 10 10 21 15 23
12 3 -2 64 -5 135 -6 l131 -1 2 -103 c3 -150 9 -145 -154 -145 -117 0 -135 2
-144 18 -9 15 -10 13 -11 -9 0 -45 17 -50 156 -47 l127 3 22 40 c19 32 23 56
24 135 1 52 -2 100 -6 105 -20 26 -45 30 -167 27z"/>
<path d="M2407 1408 c-14 -11 -17 -36 -20 -150 -2 -86 0 -141 7 -148 6 -6 65
-10 143 -10 l133 0 20 40 c16 32 20 59 20 149 0 99 -2 111 -19 121 -29 15
-263 13 -284 -2z m254 -28 c18 -10 19 -20 18 -116 -1 -91 -4 -106 -20 -114
-28 -15 -238 -8 -251 8 -9 10 -3 11 29 6 27 -4 43 -2 48 6 10 15 -3 26 -16 13
-5 -5 -21 -8 -35 -5 -25 5 -31 16 -14 27 6 3 10 1 10 -5 0 -7 12 -9 34 -5 22
5 36 3 42 -6 4 -7 3 -14 -4 -17 -19 -6 -14 -24 6 -18 9 3 50 6 90 7 54 2 72 6
72 16 0 10 -5 11 -19 3 -25 -13 -54 -13 -46 0 4 6 -6 10 -22 11 -25 1 -24 2 7
8 20 4 42 11 50 16 10 6 12 4 6 -11 -5 -15 -4 -16 5 -7 12 12 20 175 8 167 -4
-2 -9 2 -12 8 -2 7 -2 -7 0 -32 l5 -46 -43 5 -44 6 38 3 c20 2 37 7 37 13 0 5
-4 9 -10 9 -5 0 -7 6 -4 14 3 8 0 17 -6 21 -7 4 -14 -2 -17 -14 -7 -27 -33
-28 -33 -1 0 17 -7 20 -42 20 -24 0 -60 -5 -81 -11 -44 -12 -61 -4 -34 16 23
16 219 20 248 5z"/>
<path d="M852 1048 c-7 -7 -12 -19 -12 -27 1 -13 2 -13 11 2 9 15 26 17 137
17 70 0 133 -4 141 -9 19 -12 28 -174 12 -213 l-11 -28 -134 0 c-118 0 -136 2
-145 18 -9 14 -10 12 -11 -15 0 -22 6 -36 19 -43 20 -10 210 -14 246 -4 12 3
30 25 43 52 19 40 21 62 19 145 -1 74 -6 100 -17 107 -23 15 -283 13 -298 -2z"/>
<path d="M1723 614 c-22 -22 -25 -32 -20 -70 2 -24 10 -51 17 -59 16 -20 64
-19 84 1 28 27 24 111 -6 137 -28 23 -44 22 -75 -9z"/>
</g>
</svg>
